<svg width="60" height="60" viewBox="0 0 60 60" fill="none" xmlns="http://www.w3.org/2000/svg">
<rect width="60" height="60" fill="#131313"/>
<path d="M26 41C26.5523 41 27 40.5523 27 40C27 39.4477 26.5523 39 26 39C25.4477 39 25 39.4477 25 40C25 40.5523 25.4477 41 26 41Z" stroke="white" stroke-width="2" stroke-linecap="round" stroke-linejoin="round"/>
<path d="M37 41C37.5523 41 38 40.5523 38 40C38 39.4477 37.5523 39 37 39C36.4477 39 36 39.4477 36 40C36 40.5523 36.4477 41 37 41Z" stroke="white" stroke-width="2" stroke-linecap="round" stroke-linejoin="round"/>
<path d="M18 20H22L24.68 33.39C24.7714 33.8504 25.0219 34.264 25.3875 34.5583C25.7532 34.8526 26.2107 35.009 26.68 35H36.4C36.8693 35.009 37.3268 34.8526 37.6925 34.5583C38.0581 34.264 38.3086 33.8504 38.4 33.39L40 25H23" stroke="white" stroke-width="2" stroke-linecap="round" stroke-linejoin="round"/>
</svg>
