<svg width="21" height="21" viewBox="0 0 21 21" fill="none" xmlns="http://www.w3.org/2000/svg">
<circle cx="10.5" cy="10.5" r="10" stroke="black"/>
<path d="M8.37 14V13.32L11.22 10.57C11.4733 10.33 11.66 10.12 11.78 9.94C11.9067 9.75333 11.99 9.58333 12.03 9.43C12.0767 9.27 12.1 9.11667 12.1 8.97C12.1 8.61 11.9733 8.32667 11.72 8.12C11.4667 7.91333 11.0967 7.81 10.61 7.81C10.2367 7.81 9.9 7.87333 9.6 8C9.3 8.12 9.04 8.31 8.82 8.57L8.14 7.98C8.40667 7.64 8.76333 7.38 9.21 7.2C9.66333 7.01333 10.16 6.92 10.7 6.92C11.1867 6.92 11.61 7 11.97 7.16C12.33 7.31333 12.6067 7.53667 12.8 7.83C13 8.12333 13.1 8.47 13.1 8.87C13.1 9.09667 13.07 9.32 13.01 9.54C12.95 9.76 12.8367 9.99333 12.67 10.24C12.5033 10.4867 12.2633 10.7633 11.95 11.07L9.41 13.52L9.17 13.13H13.4V14H8.37Z" fill="black"/>
</svg>
